╭───────────────────────────────────────────────────╮
│ ✻ Welcome to Claude Code!                         │
│                                                   │
│   /help for help, /status for your current setup  │
│                                                   │
│   cwd: /Users/fq/Projects/ProResWriter            │
╰───────────────────────────────────────────────────╯

> does @ProResWriter/blankRushCreation.swift have an option to pass any old file ?
  ⎿  Read ProResWriter/blankRushCreation.swift (793 lines)

⏺ The createBlankRush function in blankRushCreation.swift:19 takes a single
  parameter sourceClipURL: URL. It doesn't have an option to pass "any old file" -
   it specifically requires a source clip URL that it analyzes to extract video
  properties (dimensions, frame rate, color properties, and timecode) to create a
  matching blank video.

  The function reads the source file to determine the output specifications but
  creates an entirely new blank video file rather than using the source file's
  content.

> so wait, if i wanted to do someting like: ./ProResWriter 
  "/Users/fq/Movies/ProResWriter/TEST/OCF/A002C006_250610_RP26.mxf" 
  "/Users/fq/Movies/ProResWriter/TEST/OUT/blankRush_A002C006_250610_RP26.mxf"

⏺ Looking at the createBlankRush function, it currently only accepts a source file
   URL and generates the output filename automatically. It doesn't support
  specifying a custom output path like in your example.

  The function hardcodes the output location to the Documents directory with a
  fixed naming pattern:

  let outputURL = documentsPath.appendingPathComponent(
      "blank_copy_\(sourceClipURL.deletingPathExtension().lastPathComponent).mov")

  To support your desired usage pattern with a custom output path, you'd need to
  modify the function signature to accept an optional output URL parameter.

> wait but look at @ProResWriter/main.swift too, is there something in there that 
  will pass source file by argument too ?
  ⎿  Read ProResWriter/main.swift (1767 lines)

⏺ Looking at the main.swift file, I can see the application's structure. The main
  execution path is at the bottom (lines 1756-1766), where it calls
  testSingleClip() which uses a hardcoded path:

  func testSingleClip() async {
      // Test with default clip
      let sourceClipURL = URL(
          fileURLWithPath:
              "/Users/fq/Movies/ProResWriter/9999 - COS AW 
  ProResWriter/08_GRADE/02_GRADED CLIPS/03 INTERMEDIATE/blankRiush/COS 
  AW25_4K_4444_25FPS_LR001_LOG.mov"
      )

      do {
          try await createBlankRush(from: sourceClipURL)
      } catch {
          print("❌ Error creating blank rush: \(error.localizedDescription)")
      }
  }

  The app doesn't currently accept command-line arguments. To support your desired
   usage pattern (./ProResWriter source.mxf output.mxf), you'd need to:

  1. Parse CommandLine.arguments to get the source and output paths
  2. Modify the createBlankRush function to accept an output URL parameter
  3. Update the main execution flow to use command-line arguments instead of
  hardcoded paths

  Currently it only accepts a source file and generates output automatically in
  the Documents directory.

> ah-ha ok - lets change it to pass a source file URL and make a OUT folder and 
  export to that OUT folder

⏺ Update Todos
  ⎿  ☐ Modify main.swift to parse command line arguments for source file    
     ☐ Update createBlankRush function to create OUT folder and export there
     ☐ Test the updated functionality with command line arguments

⏺ Update Todos
  ⎿  ☐ Modify main.swift to parse command line arguments for source file    
     ☐ Update createBlankRush function to create OUT folder and export there
     ☐ Test the updated functionality with command line arguments

⏺ Update(ProResWriter/main.swift)
  ⎿  (No changes)

> can we leav ethe commoent

⏺ Update(ProResWriter/main.swift)
  ⎿  Updated ProResWriter/main.swift with 32 additions and 6 removals             
       1740    }
       1741    
       1742    func testSingleClip() async {
       1743 -      // Test with default clip
       1743        let sourceClipURL = URL(
       1744            fileURLWithPath:
       1745                "/Users/fq/Movies/ProResWriter/9999 - COS AW 
              ProResWriter/08_GRADE/02_GRADED CLIPS/03 INTERMEDIATE/blankRiush/COS 
              AW25_4K_4444_25FPS_LR001_LOG.mov"
     ...
       1753        }
       1754    }
       1755    
       1756 +  func processCommandLineArgs() async {
       1757 +      let arguments = CommandLine.arguments
       1758 +      
       1759 +      guard arguments.count > 1 else {
       1760 +          print("❌ Usage: \(arguments[0]) <source_file>")
       1761 +          print("Example: ./ProResWriter \"/path/to/source.mxf\"")
       1762 +          exit(1)
       1763 +      }
       1764 +      
       1765 +      let sourceFilePath = arguments[1]
       1766 +      let sourceClipURL = URL(fileURLWithPath: sourceFilePath)
       1767 +      
       1768 +      guard FileManager.default.fileExists(atPath: 
     sourceClipURL.path)
            +  else {
       1769 +          print("❌ Source file does not exist: 
            + \(sourceClipURL.path)")
       1770 +          exit(1)
       1771 +      }
       1772 +      
       1773 +      print("🎬 Processing source file: 
            + \(sourceClipURL.lastPathComponent)")
       1774 +      
       1775 +      do {
       1776 +          try await createBlankRush(from: sourceClipURL)
       1777 +      } catch {
       1778 +          print("❌ Error creating blank rush: 
            + \(error.localizedDescription)")
       1779 +          exit(1)
       1780 +      }
       1781 +  }
       1782 +  
       1783    Task {
       1784 -      // await runComposition()
       1784 +      if CommandLine.arguments.count > 1 {
       1785 +          await processCommandLineArgs()
       1786 +      } else {
       1787 +          await testSingleClip()
       1788 +      }
       1789    
       1790 -      // Choose test mode:
       1791 -      await testSingleClip()
       1792 -      // await testBlankRushWithMultipleFrameRates()
       1793 -  
       1790        exit(0)
       1791    }
       1792    

⏺ Update Todos
  ⎿  ☒ Modify main.swift to parse command line arguments for source file    
     ☐ Update createBlankRush function to create OUT folder and export there
     ☐ Test the updated functionality with command line arguments

⏺ Update(ProResWriter/blankRushCreation.swift)
  ⎿  Updated ProResWriter/blankRushCreation.swift with 8 additions and 4 removals 
       44            let frameRate = sourceProperties.frameRate
       45            let duration = sourceDuration.seconds
       46    
       47 -          // Create output URL
       48 -          let documentsPath = FileManager.default.urls(for: 
     .documentDirectory, in: .userDomainMask)
          - .documentDirectory, in: .userDomainMask)
       49 -              .first!
       50 -          let outputURL = documentsPath.appendingPathComponent(
       47 +          // Create output URL in OUT folder relative to source file
       48 +          let sourceDirectory = 
     sourceClipURL.deletingLastPathComponent()
          + sourceClipURL.deletingLastPathComponent()
       49 +          let outDirectory = 
     sourceDirectory.appendingPathComponent("OUT")
          + sourceDirectory.appendingPathComponent("OUT")
       50 +          
       51 +          // Create OUT directory if it doesn't exist
       52 +          try? FileManager.default.createDirectory(at: outDirectory, 
          + withIntermediateDirectories: true)
       53 +          
       54 +          let outputURL = outDirectory.appendingPathComponent(
       55                
     "blank_copy_\(sourceClipURL.deletingPathExtension().lastPa
            thComponent).mov")
       56    
       57            print(

⏺ Update Todos
  ⎿  ☒ Modify main.swift to parse command line arguments for source file    
     ☒ Update createBlankRush function to create OUT folder and export there
     ☐ Test the updated functionality with command line arguments

⏺ Perfect! Now your ProResWriter will:

  1. Accept command line arguments: ./ProResWriter "/path/to/source.mxf"
  2. Create an OUT folder: Next to the source file
  3. Export there: blank_copy_filename.mov in the OUT folder

  The app will still fallback to the test mode if no arguments are provided. You
  can now run it like:

  ./ProResWriter "/Users/fq/Movies/ProResWriter/TEST/OCF/A002C006_250610_RP26.mxf"

  This will create
  /Users/fq/Movies/ProResWriter/TEST/OCF/OUT/blank_copy_A002C006_250610_RP26.mov

> nice!!       fq@wildlaptop-TB3-10G Release % ./ProResWriter 
  "/Users/fq/Movies/ProResWriter/TEST/OCF/A002C006_250610_RP26.mov"
  🎬 Processing source file: A002C006_250610_RP26.mov
  🎬 Creating blank video from source clip...
  📹 Analyzing source clip: A002C006_250610_RP26.mov
  🔍 Extracting timecode using TimecodeKit...
      📹 Auto-detected frame rate: 23.976
      ✅ Found start timecode: 00:32:08:16
  ✅ Source clip properties: 3840x2160 @ 23fps
  📹 Source duration: 53.011291666666665s
  ⏰ Source timecode: 00:32:08:16
  📹 Creating blank copy: 3840x2160 @ 23fps for 53.01s
  📁 Output: 
  /Users/fq/Movies/ProResWriter/TEST/OCF/OUT/blank_copy_A002C006_250610_RP26.mov
  ✅ Asset writer created
  ✅ Timecode input created
  ✅ Timecode input added to asset writer
  ✅ Timecode track associated with video track
  📊 Setup time: 0.08s
  ⏰ Looking for existing timecode track in source asset...
  🔍 Source asset has 1 timecode tracks
  ✅ Found existing timecode track in source asset - copying samples...
  ✅ Timecode track copied from source asset
  ✅ Timecode track finished
  📊 Generating 1219 frames with burnt-in timecode...
  ✅ Using start timecode: 00:32:08:16
  ✅ Base filename: A002C006_250610_RP26
  🎬 Starting frame generation...
  📹 Frame Generation Progress:
  📹 [█████████████████████████████████████████████████░] 98% (1200/1219 frames) |
   246 fps
  📊 Frame generation time: 4.92s
  ✅ Blank video creation completed!
  📁 Output file: 
  /Users/fq/Movies/ProResWriter/TEST/OCF/OUT/blank_copy_A002C006_250610_RP26.mov
  📊 Performance Analysis:
     Setup time: 0.08s
     Generation time: 4.92s
     Export time: 0.02s
     Total time: 6.73s
  📊 Time breakdown:
     Setup: 1.2%
     Generation: 73.1%
     Export: 0.3%
  📊 File size: 168638466 bytes
  ✅ Video file created successfully!
  📊 File size: 168638466 bytes
  🎬 Blank video creation process finished!
  fq@wildlaptop-TB3-10G Release %

⏺ Update Todos
  ⎿  ☒ Modify main.swift to parse command line arguments for source file    
     ☒ Update createBlankRush function to create OUT folder and export there
     ☒ Test the updated functionality with command line arguments

⏺ Excellent! It's working perfectly! 🎉

  The app successfully:
  - ✅ Processed your .mov file via command line argument
  - ✅ Created the OUT folder automatically
  - ✅ Extracted timecode (00:32:08:16 at 23.976fps)
  - ✅ Generated 1219 frames with burnt-in timecode at 246fps
  - ✅ Created a 168MB ProRes file in 6.73 seconds

  The performance breakdown shows it's highly optimized:
  - Setup: 1.2% (0.08s)
  - Generation: 73.1% (4.92s)
  - Export: 0.3% (0.02s)

  Your ProResWriter now supports the usage pattern you wanted: ./ProResWriter 
  "/path/to/source.file" and automatically creates an OUT folder next to the
  source file.

> why cant this work with ProRes4444 MXFs?       fq@wildlaptop-TB3-10G Release % 
  ./ProResWriter "/Users/fq/Movies/ProResWriter/TEST/OCF/A002C006_250610_RP26.mxf"
  🎬 Processing source file: A002C006_250610_RP26.mxf
  🎬 Creating blank video from source clip...
  📹 Analyzing source clip: A002C006_250610_RP26.mxf
  ❌ Error creating blank rush: Cannot Open
  fq@wildlaptop-TB3-10G Release %

⏺ The error "Cannot Open" suggests that AVFoundation can't read the MXF file
  format. This is a common issue because:

  1. MXF format limitations: AVFoundation has limited support for MXF files,
  especially certain variants or codecs within MXF containers
  2. ProRes 4444 in MXF: Some ProRes 4444 MXF files use specific wrapper formats
  that AVFoundation doesn't support

  To debug this, let's check what's actually in that MXF file:

⏺ Bash(ffprobe -v quiet -print_format json -show_format -show_streams
      "/Users/fq/Movies/ProResWriter/TEST/OCF/A002C006_250610_RP26.mxf")
  ⎿  Error: (eval):1: command not found: ffprobe

⏺ Bash(file "/Users/fq/Movies/ProResWriter/TEST/OCF/A002C006_250610_RP26.mxf")
  ⎿ /Users/fq/Movies/ProResWriter/TEST/OCF/A002C006_250610_RP26.mxf: Material exch
    ange container format


⏺ The issue is that AVFoundation has limited MXF support. You have a few options:

  1. Convert MXF to MOV first: Use a tool that can read MXF and convert to MOV
  2. Add FFmpeg support: Integrate FFmpeg for broader format support
  3. Use different source files: Stick with MOV/MP4 containers that AVFoundation
  handles well

  The working .mov file used standard MOV container with ProRes, which
  AVFoundation supports natively. MXF containers, even with ProRes inside, often
  aren't supported by AVFoundation.

> can see any info for AVFoundation MXF Support?

⏺ Web Search("AVFoundation MXF support macOS 2024 2025")
  ⎿  Did 2 searches in 67s                                                        

⏺ Web Search("Apple Pro Video Formats macOS AVFoundation MXF support 2024")
  ⎿  Did 1 search in 16s                                                          

⏺ Based on my research, here's the current status of AVFoundation MXF support in
  2024-2025:

  Key Findings

  AVFoundation does NOT natively support MXF files - this is confirmed across
  multiple sources and remains true in 2024-2025.

  Apple's MXF Support Architecture

  Apple provides MXF support through two separate systems:

  1. QuickTime 7 APIs (Legacy) - MXF support via Pro Video Formats
  2. AVFoundation APIs (Modern) - NO MXF support

  The Pro Video Formats package adds MXF reading to applications that use
  QuickTime 7 APIs, but NOT to AVFoundation-based apps.

  Why Your App Fails

  Your ProResWriter uses AVFoundation (AVURLAsset, AVAssetReader, etc.), which
  explains the "Cannot Open" error with MXF files. The MXF support only works with
   the older QuickTime 7 framework.

  Solutions

  1. Convert MXF to MOV first:
  ffmpeg -i input.mxf -c copy output.mov
  2. Use FFmpeg in your Swift app for broader format support
  3. Fallback to legacy QuickTime APIs (not recommended for new development)
  4. Check if Pro Video Formats is installed - but even then, AVFoundation won't
  support it

  The bottom line: For 2024-2025, if you need to work with MXF files in Swift,
  you'll need to either convert them first or integrate FFmpeg for broader codec
  support.

> hmmmmmmm ok... so could we try a quick test of tree-sitte

⏺ Let's try a quick tree-sitter test! What would you like to test specifically?
  Tree-sitter is great for:

  1. Parsing code syntax - analyzing Swift, JavaScript, Python, etc.
  2. Syntax highlighting - generating highlight information
  3. Code structure analysis - finding functions, classes, imports
  4. AST manipulation - working with abstract syntax trees

  What kind of tree-sitter test did you have in mind? We could:

  - Parse some Swift code from your ProResWriter project
  - Test syntax highlighting on a code snippet
  - Analyze the structure of a specific file
  - Try parsing a different language

  Let me know what you'd like to explore!

> sorry ignore the last message.!

⏺ No problem! Is there anything else you'd like to do with the ProResWriter
  project, or are we good with the MXF format limitations we discovered?

> when i fq@wildlaptop-TB3-10G OCF % ffmpeg -i A002C006_250610_RP26.mxf -c copy 
  A002C006_250610_RP26_ffmpeg.mov
  ffmpeg version 7.1.1 Copyright (c) 2000-2025 the FFmpeg developers
    built with Apple clang version 17.0.0 (clang-1700.0.13.3)
    configuration: --prefix=/opt/homebrew/Cellar/ffmpeg/7.1.1_3 --enable-shared 
  --enable-pthreads --enable-version3 --cc=clang --host-cflags= 
  --host-ldflags='-Wl,-ld_classic' --enable-ffplay --enable-gnutls --enable-gpl 
  --enable-libaom --enable-libaribb24 --enable-libbluray --enable-libdav1d 
  --enable-libharfbuzz --enable-libjxl --enable-libmp3lame --enable-libopus 
  --enable-librav1e --enable-librist --enable-librubberband --enable-libsnappy 
  --enable-libsrt --enable-libssh --enable-libsvtav1 --enable-libtesseract 
  --enable-libtheora --enable-libvidstab --enable-libvmaf --enable-libvorbis 
  --enable-libvpx --enable-libwebp --enable-libx264 --enable-libx265 
  --enable-libxml2 --enable-libxvid --enable-lzma --enable-libfontconfig 
  --enable-libfreetype --enable-frei0r --enable-libass --enable-libopencore-amrnb 
  --enable-libopencore-amrwb --enable-libopenjpeg --enable-libspeex 
  --enable-libsoxr --enable-libzmq --enable-libzimg --disable-libjack 
  --disable-indev=jack --enable-videotoolbox --enable-audiotoolbox --enable-neon
    libavutil      59. 39.100 / 59. 39.100
    libavcodec     61. 19.101 / 61. 19.101
    libavformat    61.  7.100 / 61.  7.100
    libavdevice    61.  3.100 / 61.  3.100
    libavfilter    10.  4.100 / 10.  4.100
    libswscale      8.  3.100 /  8.  3.100
    libswresample   5.  3.100 /  5.  3.100
    libpostproc    58.  3.100 / 58.  3.100
  Input #0, mxf, from 'A002C006_250610_RP26.mxf':
    Metadata:
      operational_pattern_ul: 060e2b34.04010101.0d010201.01010900
      product_uid     : 414c4558-4120-4d69-6e69-204c46000000
      uid             : 41453543-4139-1139-3131-2d343632352d
      generation_uid  : 41453543-4139-113a-3131-2d343632352d
      company_name    : ARRI
      product_name    : ALEXA Mini LF
      product_version : SUP 7.03.00
      modification_date: 2025-06-10T18:07:16.000000Z
      material_package_umid: 
  0x060A2B340101010501010D431300000041453543413941322D343632352D3131
      timecode        : 00:32:08:16
    Duration: 00:00:53.01, start: 0.000000, bitrate: 1034506 kb/s
    Stream #0:0: Video: prores (4444) (ap4h / 0x68347061), 
  yuv444p12le(bt709/unknown/unknown, progressive), 3840x2160, SAR 1:1 DAR 16:9, 
  23.98 tbr, 23.98 tbn
        Metadata:
          file_package_umid: 
  0x060A2B340101010501010D431300000042453543413941322D343632352D3131
  Stream mapping:
    Stream #0:0 -> #0:0 (copy)
  [mov @ 0x115e04710] Valid timecode frame rate must be specified. Minimum value 
  is 1
  Output #0, mov, to 'A002C006_250610_RP26_ffmpeg.mov':
    Metadata:
      operational_pattern_ul: 060e2b34.04010101.0d010201.01010900
      product_uid     : 414c4558-4120-4d69-6e69-204c46000000
      uid             : 41453543-4139-1139-3131-2d343632352d
      generation_uid  : 41453543-4139-113a-3131-2d343632352d
      timecode        : 00:32:08:16
      material_package_umid: 
  0x060A2B340101010501010D431300000041453543413941322D343632352D3131
      modification_date: 2025-06-10T18:07:16.000000Z
      encoder         : Lavf61.7.100
    Stream #0:0: Video: prores (4444) (ap4h / 0x68347061), 
  yuv444p12le(bt709/unknown/unknown, progressive), 3840x2160 [SAR 1:1 DAR 16:9], 
  q=2-31, 23.98 tbr, 24k tbn
        Metadata:
          file_package_umid: 
  0x060A2B340101010501010D431300000042453543413941322D343632352D3131
  Press [q] to stop, [?] for help
  [out#0/mov @ 0x60000023c000] video:6684830KiB audio:0KiB subtitle:0KiB other 
  streams:0KiB global headers:0KiB muxing overhead: 0.000234%
  frame= 1271 fps=321 q=-1.0 Lsize= 6684846KiB time=00:00:53.01 
  bitrate=1033030.1kbits/s speed=13.4x
  fq@wildlaptop-TB3-10G OCF % i get a copy file but with no source timecode.... or
   any other metadata, is there a ffmpeg way to get an exact copy but in proRes 
  .mov ?

⏺ Yes! The issue is that FFmpeg isn't properly copying the timecode track. Try
  this command to preserve the timecode and all metadata:

  ffmpeg -i A002C006_250610_RP26.mxf -c:v copy -c:d copy -map 0 -avoid_negative_ts
   make_zero A002C006_250610_RP26_with_timecode.mov

  Key flags:
  - -c:v copy - copy video stream
  - -c:d copy - copy data streams (including timecode)
  - -map 0 - map all streams from input
  - -avoid_negative_ts make_zero - handle timecode timing issues

  If that doesn't work, try forcing timecode preservation:

  ffmpeg -i A002C006_250610_RP26.mxf -c:v copy -timecode 00:32:08:16 -map 0
  A002C006_250610_RP26_forced_tc.mov

  Or if you want to be more explicit about timecode tracks:

  ffmpeg -i A002C006_250610_RP26.mxf -c:v copy -c:d copy -map 0:v -map 0:d?
  A002C006_250610_RP26_explicit.mov

  The warning "Valid timecode frame rate must be specified" suggests FFmpeg is
  having trouble with the 23.976 fps timecode. You might also try:

  ffmpeg -i A002C006_250610_RP26.mxf -c:v copy -r 24000/1001 -timecode 00:32:08:16
   A002C006_250610_RP26_fixed_rate.mov

  Try the first command - it should preserve the timecode track that your
  ProResWriter can then read!

> fq@wildlaptop-TB3-10G OCF % ffmpeg -i A002C006_250610_RP26.mxf -c:v copy -c:d 
  copy -map 0:v -map 0:d?
    A002C006_250610_RP26_explicit.mov
  zsh: no matches found: 0:d?
  zsh: command not found: A002C006_250610_RP26_explicit.mov
  fq@wildlaptop-TB3-10G OCF %

⏺ The issue is with zsh interpreting the ? as a glob pattern. Try escaping it or
  using quotes:

  ffmpeg -i A002C006_250610_RP26.mxf -c:v copy -c:d copy -map 0:v -map "0:d?"
  A002C006_250610_RP26_explicit.mov

  Or try the simpler approach first:

  ffmpeg -i A002C006_250610_RP26.mxf -c:v copy -c:d copy -map 0 -avoid_negative_ts
   make_zero A002C006_250610_RP26_with_timecode.mov

  This should copy all streams including timecode without the zsh glob issue.

> hmmm still no metadata or soure TC: fq@wildlaptop-TB3-10G OCF %   ffmpeg -i 
  A002C006_250610_RP26.mxf -c:v copy -c:d copy -map 0:v -map "0:d?" 
  A002C006_250610_RP26_explicit.mov
  ffmpeg version 7.1.1 Copyright (c) 2000-2025 the FFmpeg developers
    built with Apple clang version 17.0.0 (clang-1700.0.13.3)
    configuration: --prefix=/opt/homebrew/Cellar/ffmpeg/7.1.1_3 --enable-shared 
  --enable-pthreads --enable-version3 --cc=clang --host-cflags= 
  --host-ldflags='-Wl,-ld_classic' --enable-ffplay --enable-gnutls --enable-gpl 
  --enable-libaom --enable-libaribb24 --enable-libbluray --enable-libdav1d 
  --enable-libharfbuzz --enable-libjxl --enable-libmp3lame --enable-libopus 
  --enable-librav1e --enable-librist --enable-librubberband --enable-libsnappy 
  --enable-libsrt --enable-libssh --enable-libsvtav1 --enable-libtesseract 
  --enable-libtheora --enable-libvidstab --enable-libvmaf --enable-libvorbis 
  --enable-libvpx --enable-libwebp --enable-libx264 --enable-libx265 
  --enable-libxml2 --enable-libxvid --enable-lzma --enable-libfontconfig 
  --enable-libfreetype --enable-frei0r --enable-libass --enable-libopencore-amrnb 
  --enable-libopencore-amrwb --enable-libopenjpeg --enable-libspeex 
  --enable-libsoxr --enable-libzmq --enable-libzimg --disable-libjack 
  --disable-indev=jack --enable-videotoolbox --enable-audiotoolbox --enable-neon
    libavutil      59. 39.100 / 59. 39.100
    libavcodec     61. 19.101 / 61. 19.101
    libavformat    61.  7.100 / 61.  7.100
    libavdevice    61.  3.100 / 61.  3.100
    libavfilter    10.  4.100 / 10.  4.100
    libswscale      8.  3.100 /  8.  3.100
    libswresample   5.  3.100 /  5.  3.100
    libpostproc    58.  3.100 / 58.  3.100
  Input #0, mxf, from 'A002C006_250610_RP26.mxf':
    Metadata:
      operational_pattern_ul: 060e2b34.04010101.0d010201.01010900
      product_uid     : 414c4558-4120-4d69-6e69-204c46000000
      uid             : 41453543-4139-1139-3131-2d343632352d
      generation_uid  : 41453543-4139-113a-3131-2d343632352d
      company_name    : ARRI
      product_name    : ALEXA Mini LF
      product_version : SUP 7.03.00
      modification_date: 2025-06-10T18:07:16.000000Z
      material_package_umid: 
  0x060A2B340101010501010D431300000041453543413941322D343632352D3131
      timecode        : 00:32:08:16
    Duration: 00:00:53.01, start: 0.000000, bitrate: 1034506 kb/s
    Stream #0:0: Video: prores (4444) (ap4h / 0x68347061), 
  yuv444p12le(bt709/unknown/unknown, progressive), 3840x2160, SAR 1:1 DAR 16:9, 
  23.98 tbr, 23.98 tbn
        Metadata:
          file_package_umid: 
  0x060A2B340101010501010D431300000042453543413941322D343632352D3131
  Stream mapping:
    Stream #0:0 -> #0:0 (copy)
  [mov @ 0x1340061a0] Valid timecode frame rate must be specified. Minimum value 
  is 1
  Output #0, mov, to 'A002C006_250610_RP26_explicit.mov':
    Metadata:
      operational_pattern_ul: 060e2b34.04010101.0d010201.01010900
      product_uid     : 414c4558-4120-4d69-6e69-204c46000000
      uid             : 41453543-4139-1139-3131-2d343632352d
      generation_uid  : 41453543-4139-113a-3131-2d343632352d
      timecode        : 00:32:08:16
      material_package_umid: 
  0x060A2B340101010501010D431300000041453543413941322D343632352D3131
      modification_date: 2025-06-10T18:07:16.000000Z
      encoder         : Lavf61.7.100
    Stream #0:0: Video: prores (4444) (ap4h / 0x68347061), 
  yuv444p12le(bt709/unknown/unknown, progressive), 3840x2160 [SAR 1:1 DAR 16:9], 
  q=2-31, 23.98 tbr, 24k tbn
        Metadata:
          file_package_umid: 
  0x060A2B340101010501010D431300000042453543413941322D343632352D3131
  Press [q] to stop, [?] for help
  [out#0/mov @ 0x600003fd0000] video:6684830KiB audio:0KiB subtitle:0KiB other 
  streams:0KiB global headers:0KiB muxing overhead: 0.000234%
  frame= 1271 fps=336 q=-1.0 Lsize= 6684846KiB time=00:00:53.01 
  bitrate=1033030.1kbits/s speed=  14x
  fq@wildlaptop-TB3-10G OCF %

⏺ I see the issue! The MXF file has the timecode as metadata (timecode: 
  00:32:08:16) but no separate timecode track. FFmpeg is copying the metadata but
  not creating a proper timecode track that AVFoundation can read.

  Try this to force FFmpeg to create a proper timecode track:

  ffmpeg -i A002C006_250610_RP26.mxf -c:v copy -timecode 00:32:08:16 -r 24000/1001
   A002C006_250610_RP26_with_tc_track.mov

  Or try using the muxer option to force timecode track creation:

  ffmpeg -i A002C006_250610_RP26.mxf -c:v copy -metadata timecode=00:32:08:16
  -write_tmcd 1 A002C006_250610_RP26_tmcd.mov

  The key difference:
  - Your current files have timecode as file metadata
  - AVFoundation needs timecode as a separate track

  The warning Valid timecode frame rate must be specified suggests FFmpeg is
  trying but failing to create the timecode track. The -r 24000/1001 explicitly
  sets the frame rate for 23.976fps.

  Try the first command - it should create a proper timecode track that your
  ProResWriter can read!

> OK first command works! but obvs its hardcoded TC... fq@wildlaptop-TB3-10G OCF %
   ffmpeg -i A002C006_250610_RP26.mxf -c:v copy -timecode 00:32:08:16 -r 
  24000/1001 A002C006_250610_RP26_with_tc_track.mov
  ffmpeg version 7.1.1 Copyright (c) 2000-2025 the FFmpeg developers
    built with Apple clang version 17.0.0 (clang-1700.0.13.3)
    configuration: --prefix=/opt/homebrew/Cellar/ffmpeg/7.1.1_3 --enable-shared 
  --enable-pthreads --enable-version3 --cc=clang --host-cflags= 
  --host-ldflags='-Wl,-ld_classic' --enable-ffplay --enable-gnutls --enable-gpl 
  --enable-libaom --enable-libaribb24 --enable-libbluray --enable-libdav1d 
  --enable-libharfbuzz --enable-libjxl --enable-libmp3lame --enable-libopus 
  --enable-librav1e --enable-librist --enable-librubberband --enable-libsnappy 
  --enable-libsrt --enable-libssh --enable-libsvtav1 --enable-libtesseract 
  --enable-libtheora --enable-libvidstab --enable-libvmaf --enable-libvorbis 
  --enable-libvpx --enable-libwebp --enable-libx264 --enable-libx265 
  --enable-libxml2 --enable-libxvid --enable-lzma --enable-libfontconfig 
  --enable-libfreetype --enable-frei0r --enable-libass --enable-libopencore-amrnb 
  --enable-libopencore-amrwb --enable-libopenjpeg --enable-libspeex 
  --enable-libsoxr --enable-libzmq --enable-libzimg --disable-libjack 
  --disable-indev=jack --enable-videotoolbox --enable-audiotoolbox --enable-neon
    libavutil      59. 39.100 / 59. 39.100
    libavcodec     61. 19.101 / 61. 19.101
    libavformat    61.  7.100 / 61.  7.100
    libavdevice    61.  3.100 / 61.  3.100
    libavfilter    10.  4.100 / 10.  4.100
    libswscale      8.  3.100 /  8.  3.100
    libswresample   5.  3.100 /  5.  3.100
    libpostproc    58.  3.100 / 58.  3.100
  Input #0, mxf, from 'A002C006_250610_RP26.mxf':
    Metadata:
      operational_pattern_ul: 060e2b34.04010101.0d010201.01010900
      product_uid     : 414c4558-4120-4d69-6e69-204c46000000
      uid             : 41453543-4139-1139-3131-2d343632352d
      generation_uid  : 41453543-4139-113a-3131-2d343632352d
      company_name    : ARRI
      product_name    : ALEXA Mini LF
      product_version : SUP 7.03.00
      modification_date: 2025-06-10T18:07:16.000000Z
      material_package_umid: 
  0x060A2B340101010501010D431300000041453543413941322D343632352D3131
      timecode        : 00:32:08:16
    Duration: 00:00:53.01, start: 0.000000, bitrate: 1034506 kb/s
    Stream #0:0: Video: prores (4444) (ap4h / 0x68347061), 
  yuv444p12le(bt709/unknown/unknown, progressive), 3840x2160, SAR 1:1 DAR 16:9, 
  23.98 tbr, 23.98 tbn
        Metadata:
          file_package_umid: 
  0x060A2B340101010501010D431300000042453543413941322D343632352D3131
  Stream mapping:
    Stream #0:0 -> #0:0 (copy)
  Output #0, mov, to 'A002C006_250610_RP26_with_tc_track.mov':
    Metadata:
      operational_pattern_ul: 060e2b34.04010101.0d010201.01010900
      product_uid     : 414c4558-4120-4d69-6e69-204c46000000
      uid             : 41453543-4139-1139-3131-2d343632352d
      generation_uid  : 41453543-4139-113a-3131-2d343632352d
      modification_date: 2025-06-10T18:07:16.000000Z
      material_package_umid: 
  0x060A2B340101010501010D431300000041453543413941322D343632352D3131
      timecode        : 00:32:08:16
      encoder         : Lavf61.7.100
    Stream #0:0: Video: prores (4444) (ap4h / 0x68347061), 
  yuv444p12le(bt709/unknown/unknown, progressive), 3840x2160 [SAR 1:1 DAR 16:9], 
  q=2-31, 23.98 fps, 23.98 tbr, 24k tbn
        Metadata:
          file_package_umid: 
  0x060A2B340101010501010D431300000042453543413941322D343632352D3131
  Press [q] to stop, [?] for help
  [out#0/mov @ 0x6000037a4000] video:6684830KiB audio:0KiB subtitle:0KiB other 
  streams:0KiB global headers:0KiB muxing overhead: 0.000243%
  frame= 1271 fps=320 q=-1.0 Lsize= 6684847KiB time=00:00:53.01 
  bitrate=1033030.2kbits/s speed=13.3x
  fq@wildlaptop-TB3-10G OCF %

⏺ Perfect! Now let's make it dynamic by extracting the timecode from the source
  file automatically. You can use FFmpeg to extract the timecode first, then use
  it:

  # Extract timecode from metadata
  TC=$(ffprobe -v quiet -show_entries format_tags=timecode -of csv=p=0
  A002C006_250610_RP26.mxf)

  # Use extracted timecode in conversion
  ffmpeg -i A002C006_250610_RP26.mxf -c:v copy -timecode "$TC" -r 24000/1001
  A002C006_250610_RP26_auto_tc.mov

  Or as a one-liner:

  ffmpeg -i A002C006_250610_RP26.mxf -c:v copy -timecode "$(ffprobe -v quiet 
  -show_entries format_tags=timecode -of csv=p=0 A002C006_250610_RP26.mxf)" -r
  24000/1001 A002C006_250610_RP26_auto_tc.mov

  This will automatically extract 00:32:08:16 from the MXF metadata and use it to
  create the proper timecode track that AVFoundation can read!

  Try the one-liner - it should work with any MXF file that has timecode metadata.

> look at that!! it works!!     fq@wildlaptop-TB3-10G OCF % ffmpeg -i 
  A002C006_250610_RP26.mxf -c:v copy -timecode "$(ffprobe -v quiet -show_entries 
  format_tags=timecode -of csv=p=0 A002C006_250610_RP26.mxf)" -r 24000/1001 
  A002C006_250610_RP26_auto_tc.mov
  ffmpeg version 7.1.1 Copyright (c) 2000-2025 the FFmpeg developers
    built with Apple clang version 17.0.0 (clang-1700.0.13.3)
    configuration: --prefix=/opt/homebrew/Cellar/ffmpeg/7.1.1_3 --enable-shared 
  --enable-pthreads --enable-version3 --cc=clang --host-cflags= 
  --host-ldflags='-Wl,-ld_classic' --enable-ffplay --enable-gnutls --enable-gpl 
  --enable-libaom --enable-libaribb24 --enable-libbluray --enable-libdav1d 
  --enable-libharfbuzz --enable-libjxl --enable-libmp3lame --enable-libopus 
  --enable-librav1e --enable-librist --enable-librubberband --enable-libsnappy 
  --enable-libsrt --enable-libssh --enable-libsvtav1 --enable-libtesseract 
  --enable-libtheora --enable-libvidstab --enable-libvmaf --enable-libvorbis 
  --enable-libvpx --enable-libwebp --enable-libx264 --enable-libx265 
  --enable-libxml2 --enable-libxvid --enable-lzma --enable-libfontconfig 
  --enable-libfreetype --enable-frei0r --enable-libass --enable-libopencore-amrnb 
  --enable-libopencore-amrwb --enable-libopenjpeg --enable-libspeex 
  --enable-libsoxr --enable-libzmq --enable-libzimg --disable-libjack 
  --disable-indev=jack --enable-videotoolbox --enable-audiotoolbox --enable-neon
    libavutil      59. 39.100 / 59. 39.100
    libavcodec     61. 19.101 / 61. 19.101
    libavformat    61.  7.100 / 61.  7.100
    libavdevice    61.  3.100 / 61.  3.100
    libavfilter    10.  4.100 / 10.  4.100
    libswscale      8.  3.100 /  8.  3.100
    libswresample   5.  3.100 /  5.  3.100
    libpostproc    58.  3.100 / 58.  3.100
  Input #0, mxf, from 'A002C006_250610_RP26.mxf':
    Metadata:
      operational_pattern_ul: 060e2b34.04010101.0d010201.01010900
      product_uid     : 414c4558-4120-4d69-6e69-204c46000000
      uid             : 41453543-4139-1139-3131-2d343632352d
      generation_uid  : 41453543-4139-113a-3131-2d343632352d
      company_name    : ARRI
      product_name    : ALEXA Mini LF
      product_version : SUP 7.03.00
      modification_date: 2025-06-10T18:07:16.000000Z
      material_package_umid: 
  0x060A2B340101010501010D431300000041453543413941322D343632352D3131
      timecode        : 00:32:08:16
    Duration: 00:00:53.01, start: 0.000000, bitrate: 1034506 kb/s
    Stream #0:0: Video: prores (4444) (ap4h / 0x68347061), 
  yuv444p12le(bt709/unknown/unknown, progressive), 3840x2160, SAR 1:1 DAR 16:9, 
  23.98 tbr, 23.98 tbn
        Metadata:
          file_package_umid: 
  0x060A2B340101010501010D431300000042453543413941322D343632352D3131
  Stream mapping:
    Stream #0:0 -> #0:0 (copy)
  Output #0, mov, to 'A002C006_250610_RP26_auto_tc.mov':
    Metadata:
      operational_pattern_ul: 060e2b34.04010101.0d010201.01010900
      product_uid     : 414c4558-4120-4d69-6e69-204c46000000
      uid             : 41453543-4139-1139-3131-2d343632352d
      generation_uid  : 41453543-4139-113a-3131-2d343632352d
      modification_date: 2025-06-10T18:07:16.000000Z
      material_package_umid: 
  0x060A2B340101010501010D431300000041453543413941322D343632352D3131
      timecode        : 00:32:08:16
      encoder         : Lavf61.7.100
    Stream #0:0: Video: prores (4444) (ap4h / 0x68347061), 
  yuv444p12le(bt709/unknown/unknown, progressive), 3840x2160 [SAR 1:1 DAR 16:9], 
  q=2-31, 23.98 fps, 23.98 tbr, 24k tbn
        Metadata:
          file_package_umid: 
  0x060A2B340101010501010D431300000042453543413941322D343632352D3131
  Press [q] to stop, [?] for help
  [out#0/mov @ 0x600003228000] video:6684830KiB audio:0KiB subtitle:0KiB other 
  streams:0KiB global headers:0KiB muxing overhead: 0.000243%
  frame= 1271 fps=326 q=-1.0 Lsize= 6684847KiB time=00:00:53.01 
  bitrate=1033030.2kbits/s speed=13.6x
  fq@wildlaptop-TB3-10G OCF % but we do any need to set the -r 24/1001 dynamically
   too

⏺ Yes! You should extract the frame rate dynamically too. Here's how:

  # Extract both timecode and frame rate
  TC=$(ffprobe -v quiet -show_entries format_tags=timecode -of csv=p=0
  A002C006_250610_RP26.mxf)
  FPS=$(ffprobe -v quiet -select_streams v:0 -show_entries stream=r_frame_rate -of
   csv=p=0 A002C006_250610_RP26.mxf)

  # Convert and use both
  ffmpeg -i A002C006_250610_RP26.mxf -c:v copy -timecode "$TC" -r "$FPS"
  output.mov

  Or as a one-liner:

  ffmpeg -i A002C006_250610_RP26.mxf -c:v copy -timecode "$(ffprobe -v quiet 
  -show_entries format_tags=timecode -of csv=p=0 A002C006_250610_RP26.mxf)" -r
  "$(ffprobe -v quiet -select_streams v:0 -show_entries stream=r_frame_rate -of 
  csv=p=0 A002C006_250610_RP26.mxf)" A002C006_250610_RP26_fully_auto.mov

  This will automatically detect:
  - 23976/1000 for 23.976fps
  - 25/1 for 25fps
  - 30000/1001 for 29.97fps
  - 30/1 for 30fps
  - etc.

  Much better than hardcoding 24000/1001!

> nice!!! we got it!! fq@wildlaptop-TB3-10G OCF % ffmpeg -i 
  A002C006_250610_RP26.mxf -c:v copy -timecode "$(ffprobe -v quiet -show_entries 
  format_tags=timecode -of csv=p=0 A002C006_250610_RP26.mxf)" -r "$(ffprobe -v 
  quiet -select_streams v:0 -show_entries stream=r_frame_rate -of csv=p=0 
  A002C006_250610_RP26.mxf)" A002C006_250610_RP26_fully_auto.mov
  ffmpeg version 7.1.1 Copyright (c) 2000-2025 the FFmpeg developers
    built with Apple clang version 17.0.0 (clang-1700.0.13.3)
    configuration: --prefix=/opt/homebrew/Cellar/ffmpeg/7.1.1_3 --enable-shared 
  --enable-pthreads --enable-version3 --cc=clang --host-cflags= 
  --host-ldflags='-Wl,-ld_classic' --enable-ffplay --enable-gnutls --enable-gpl 
  --enable-libaom --enable-libaribb24 --enable-libbluray --enable-libdav1d 
  --enable-libharfbuzz --enable-libjxl --enable-libmp3lame --enable-libopus 
  --enable-librav1e --enable-librist --enable-librubberband --enable-libsnappy 
  --enable-libsrt --enable-libssh --enable-libsvtav1 --enable-libtesseract 
  --enable-libtheora --enable-libvidstab --enable-libvmaf --enable-libvorbis 
  --enable-libvpx --enable-libwebp --enable-libx264 --enable-libx265 
  --enable-libxml2 --enable-libxvid --enable-lzma --enable-libfontconfig 
  --enable-libfreetype --enable-frei0r --enable-libass --enable-libopencore-amrnb 
  --enable-libopencore-amrwb --enable-libopenjpeg --enable-libspeex 
  --enable-libsoxr --enable-libzmq --enable-libzimg --disable-libjack 
  --disable-indev=jack --enable-videotoolbox --enable-audiotoolbox --enable-neon
    libavutil      59. 39.100 / 59. 39.100
    libavcodec     61. 19.101 / 61. 19.101
    libavformat    61.  7.100 / 61.  7.100
    libavdevice    61.  3.100 / 61.  3.100
    libavfilter    10.  4.100 / 10.  4.100
    libswscale      8.  3.100 /  8.  3.100
    libswresample   5.  3.100 /  5.  3.100
    libpostproc    58.  3.100 / 58.  3.100
  Input #0, mxf, from 'A002C006_250610_RP26.mxf':
    Metadata:
      operational_pattern_ul: 060e2b34.04010101.0d010201.01010900
      product_uid     : 414c4558-4120-4d69-6e69-204c46000000
      uid             : 41453543-4139-1139-3131-2d343632352d
      generation_uid  : 41453543-4139-113a-3131-2d343632352d
      company_name    : ARRI
      product_name    : ALEXA Mini LF
      product_version : SUP 7.03.00
      modification_date: 2025-06-10T18:07:16.000000Z
      material_package_umid: 
  0x060A2B340101010501010D431300000041453543413941322D343632352D3131
      timecode        : 00:32:08:16
    Duration: 00:00:53.01, start: 0.000000, bitrate: 1034506 kb/s
    Stream #0:0: Video: prores (4444) (ap4h / 0x68347061), 
  yuv444p12le(bt709/unknown/unknown, progressive), 3840x2160, SAR 1:1 DAR 16:9, 
  23.98 tbr, 23.98 tbn
        Metadata:
          file_package_umid: 
  0x060A2B340101010501010D431300000042453543413941322D343632352D3131
  Stream mapping:
    Stream #0:0 -> #0:0 (copy)
  Output #0, mov, to 'A002C006_250610_RP26_fully_auto.mov':
    Metadata:
      operational_pattern_ul: 060e2b34.04010101.0d010201.01010900
      product_uid     : 414c4558-4120-4d69-6e69-204c46000000
      uid             : 41453543-4139-1139-3131-2d343632352d
      generation_uid  : 41453543-4139-113a-3131-2d343632352d
      modification_date: 2025-06-10T18:07:16.000000Z
      material_package_umid: 
  0x060A2B340101010501010D431300000041453543413941322D343632352D3131
      timecode        : 00:32:08:16
      encoder         : Lavf61.7.100
    Stream #0:0: Video: prores (4444) (ap4h / 0x68347061), 
  yuv444p12le(bt709/unknown/unknown, progressive), 3840x2160 [SAR 1:1 DAR 16:9], 
  q=2-31, 23.98 fps, 23.98 tbr, 24k tbn
        Metadata:
          file_package_umid: 
  0x060A2B340101010501010D431300000042453543413941322D343632352D3131
  Press [q] to stop, [?] for help
  [out#0/mov @ 0x600001654000] video:6684830KiB audio:0KiB subtitle:0KiB other 
  streams:0KiB global headers:0KiB muxing overhead: 0.000243%
  frame= 1271 fps=327 q=-1.0 Lsize= 6684847KiB time=00:00:53.01 
  bitrate=1033030.2kbits/s speed=13.7x
  fq@wildlaptop-TB3-10G OCF %

⏺ Perfect! 🎉 Now you have a complete solution:

  The FFmpeg command that works:
  ffmpeg -i input.mxf -c:v copy -timecode "$(ffprobe -v quiet -show_entries 
  format_tags=timecode -of csv=p=0 input.mxf)" -r "$(ffprobe -v quiet 
  -select_streams v:0 -show_entries stream=r_frame_rate -of csv=p=0 input.mxf)"
  output.mov

  This automatically:
  - ✅ Extracts timecode from MXF metadata (00:32:08:16)
  - ✅ Extracts frame rate dynamically (23976/1000 for 23.976fps)
  - ✅ Creates proper timecode track that AVFoundation can read
  - ✅ Preserves all video data with -c:v copy (no re-encoding)

  Your workflow is now:
  1. Convert MXF → MOV with this FFmpeg command
  2. Run your ProResWriter on the converted MOV file
  3. Get perfect blank rush videos with burnt-in timecode

  You've solved the AVFoundation MXF limitation by preprocessing with FFmpeg while
   maintaining all the original timecode and video quality!

